<svg width="13" height="12" viewBox="0 0 13 12" fill="none" xmlns="http://www.w3.org/2000/svg">
<path d="M6.51172 1.125C4.75391 1.125 3.16016 2.0625 2.26953 3.5625C1.40234 5.08594 1.40234 6.9375 2.26953 8.4375C3.16016 9.96094 4.75391 10.875 6.51172 10.875C8.24609 10.875 9.83984 9.96094 10.7305 8.4375C11.5977 6.9375 11.5977 5.08594 10.7305 3.5625C9.83984 2.0625 8.24609 1.125 6.51172 1.125ZM6.51172 12C4.35547 12 2.38672 10.875 1.30859 9C0.230469 7.14844 0.230469 4.875 1.30859 3C2.38672 1.14844 4.35547 0 6.51172 0C8.64453 0 10.6133 1.14844 11.6914 3C12.7695 4.875 12.7695 7.14844 11.6914 9C10.6133 10.875 8.64453 12 6.51172 12ZM5.57422 7.875H6.13672V6.375H5.57422C5.24609 6.375 5.01172 6.14062 5.01172 5.8125C5.01172 5.50781 5.24609 5.25 5.57422 5.25H6.69922C7.00391 5.25 7.26172 5.50781 7.26172 5.8125V7.875H7.44922C7.75391 7.875 8.01172 8.13281 8.01172 8.4375C8.01172 8.76562 7.75391 9 7.44922 9H5.57422C5.24609 9 5.01172 8.76562 5.01172 8.4375C5.01172 8.13281 5.24609 7.875 5.57422 7.875ZM6.51172 4.5C6.08984 4.5 5.76172 4.17188 5.76172 3.75C5.76172 3.35156 6.08984 3 6.51172 3C6.91016 3 7.26172 3.35156 7.26172 3.75C7.26172 4.17188 6.91016 4.5 6.51172 4.5Z" fill="white"/>
</svg>
