<svg width="10" height="9" viewBox="0 0 10 9" fill="none" xmlns="http://www.w3.org/2000/svg">
<path d="M9.26367 0.65625V7.21875C9.26367 7.60156 8.96289 7.875 8.60742 7.875C8.22461 7.875 7.95117 7.60156 7.95117 7.21875V2.24219L1.63477 8.55859C1.49805 8.69531 1.33398 8.75 1.16992 8.75C0.978516 8.75 0.814453 8.69531 0.705078 8.55859C0.431641 8.3125 0.431641 7.90234 0.705078 7.65625L7.02148 1.3125H2.04492C1.66211 1.3125 1.38867 1.03906 1.38867 0.65625C1.38867 0.300781 1.66211 0 2.04492 0H8.60742C8.96289 0 9.26367 0.300781 9.26367 0.65625Z" fill="#26CA54"/>
</svg>
