<svg width="1440" height="1342" viewBox="0 0 1440 1342" fill="none" xmlns="http://www.w3.org/2000/svg">
<g opacity="0.52">
<path d="M-670.093 883.055L-872.5 964.692L-872.5 1341.34L1514.14 1341.34L1514.14 1.23327e-05L1266.6 325.359C1259.16 335.137 1249.99 343.46 1239.53 349.912L1012.9 489.753C1005.86 494.092 998.321 497.543 990.44 500.026L786.483 564.299C777.059 567.268 768.127 571.618 759.979 577.207L572.968 705.465C549.729 721.403 520.846 726.796 493.422 720.319L327.96 681.239C317.517 678.772 306.746 678.003 296.059 678.959L85.5043 697.805C70.6794 699.131 56.3377 703.751 43.5254 711.326L-161.763 832.699C-169.092 837.033 -176.945 840.412 -185.132 842.756L-394.941 902.826C-408.982 906.846 -423.734 907.742 -438.158 905.45L-616.996 877.034C-634.914 874.188 -653.268 876.269 -670.093 883.055Z" fill="url(#paint0_linear_0_8110)" fill-opacity="0.08"/>
<path d="M-162.456 903.851L-328.627 979.383L-328.627 1341.34L688.936 1341.34L1706.5 1341.34L1706.5 52.3184L1496.28 363.72C1489.37 373.953 1480.62 382.819 1470.49 389.868L1281.05 521.599C1273.75 526.676 1265.81 530.756 1257.43 533.732L1088.94 593.567C1078.97 597.108 1069.63 602.209 1061.26 608.679L911.943 724.087C887.293 743.139 855.172 749.615 825.066 741.601L699.199 708.097C687.549 704.997 675.435 704.028 663.44 705.237L493.807 722.348C477.567 723.986 461.976 729.574 448.393 738.625L279.559 851.121C271.9 856.224 263.574 860.245 254.817 863.071L84.176 918.13C68.576 923.163 51.9779 924.285 35.8426 921.396L-103.45 896.453C-123.414 892.878 -143.993 895.458 -162.456 903.851Z" fill="url(#paint1_linear_0_8110)" fill-opacity="0.08"/>
<path d="M-173.446 1062.42L-328.627 1111.82L-328.627 1341.34L592.757 1341.34L1514.14 1341.34L1514.14 523.966L1326.61 718.495C1318.48 726.929 1308.93 733.869 1298.4 738.998L1128.39 821.788C1122.11 824.847 1115.53 827.239 1108.75 828.925L953.639 867.501C945.465 869.534 937.58 872.592 930.172 876.601L790.401 952.256C770.26 963.157 746.988 966.815 724.474 962.619L598.689 939.172C590.328 937.613 581.802 937.127 573.318 937.727L412.143 949.112C399.937 949.974 387.993 953.069 376.904 958.243L221.372 1030.82C214.891 1033.84 208.104 1036.16 201.127 1037.74L40.7386 1073.98C29.4288 1076.53 17.7608 1077.1 6.25607 1075.66L-130.672 1058.49C-145.046 1056.69 -159.641 1058.03 -173.446 1062.42Z" fill="url(#paint2_linear_0_8110)" fill-opacity="0.08"/>
</g>
<defs>
<linearGradient id="paint0_linear_0_8110" x1="320.82" y1="1341.34" x2="320.82" y2="6.16637e-06" gradientUnits="userSpaceOnUse">
<stop stop-color="#4433FF"/>
<stop offset="1" stop-color="#291F99"/>
</linearGradient>
<linearGradient id="paint1_linear_0_8110" x1="688.936" y1="1341.34" x2="688.936" y2="52.3184" gradientUnits="userSpaceOnUse">
<stop stop-color="#4433FF"/>
<stop offset="1" stop-color="#291F99"/>
</linearGradient>
<linearGradient id="paint2_linear_0_8110" x1="592.757" y1="1341.34" x2="592.757" y2="523.966" gradientUnits="userSpaceOnUse">
<stop stop-color="#4433FF"/>
<stop offset="1" stop-color="#291F99"/>
</linearGradient>
</defs>
</svg>
