<svg width="17" height="23" viewBox="0 0 17 23" fill="none" xmlns="http://www.w3.org/2000/svg">
<path d="M4.8999 21H3.8999V22.618L5.34712 21.8944L4.8999 21ZM8.8999 19L9.34712 18.1056L8.8999 17.882L8.45269 18.1056L8.8999 19ZM12.8999 21L12.4527 21.8944L13.8999 22.618V21H12.8999ZM13.8999 14V13H11.8999V14H13.8999ZM3.8999 14V21H5.8999V14H3.8999ZM5.34712 21.8944L9.34712 19.8944L8.45269 18.1056L4.45269 20.1056L5.34712 21.8944ZM8.45269 19.8944L12.4527 21.8944L13.3471 20.1056L9.34712 18.1056L8.45269 19.8944ZM13.8999 21V14H11.8999V21H13.8999ZM14.8999 8C14.8999 11.3137 12.2136 14 8.8999 14V16C13.3182 16 16.8999 12.4183 16.8999 8H14.8999ZM8.8999 14C5.58619 14 2.8999 11.3137 2.8999 8H0.899902C0.899902 12.4183 4.48162 16 8.8999 16V14ZM2.8999 8C2.8999 4.68629 5.58619 2 8.8999 2V0C4.48162 0 0.899902 3.58172 0.899902 8H2.8999ZM8.8999 2C12.2136 2 14.8999 4.68629 14.8999 8H16.8999C16.8999 3.58172 13.3182 0 8.8999 0V2Z" fill="#818699"/>
</svg>
